<svg width="104" height="51" viewBox="0 0 104 51" fill="none" xmlns="http://www.w3.org/2000/svg">
<rect width="104" height="51" rx="2" fill="#FBFAF8"/>
<path fill-rule="evenodd" clip-rule="evenodd" d="M60.9034 39.8C68.6888 39.8 75.0002 33.6215 75.0002 26C75.0002 18.3784 68.6888 12.2 60.9034 12.2C53.118 12.2 46.8066 18.3784 46.8066 26C46.8066 33.6215 53.118 39.8 60.9034 39.8Z" fill="#F79E1B"/>
<path fill-rule="evenodd" clip-rule="evenodd" d="M43.0968 39.8C50.8822 39.8 57.1935 33.6215 57.1935 26C57.1935 18.3784 50.8822 12.2 43.0968 12.2C35.3113 12.2 29 18.3784 29 26C29 33.6215 35.3113 39.8 43.0968 39.8Z" fill="#EB001B"/>
<path fill-rule="evenodd" clip-rule="evenodd" d="M52.0011 36.6999C55.1706 34.1693 57.1945 30.3161 57.1945 26.0001C57.1945 21.6841 55.1705 17.8308 52.001 15.3003C48.8316 17.8308 46.8076 21.684 46.8076 26.0001C46.8076 30.3161 48.8316 34.1693 52.0011 36.6999Z" fill="#FF5F00"/>
</svg>
