<svg width="570" height="51" viewBox="0 0 570 51" fill="none" xmlns="http://www.w3.org/2000/svg">
<rect width="104" height="51" rx="2" fill="#FBFAF8"/>
<path fill-rule="evenodd" clip-rule="evenodd" d="M33.2122 13.6084C33.3574 14.8793 32.8261 16.1549 32.0357 17.0721C31.2453 17.9893 29.9491 18.7023 28.681 18.6073C28.5077 17.3625 29.1479 16.0647 29.8798 15.252C30.6966 14.3356 32.0744 13.6535 33.2122 13.6084ZM37.3127 21.0115C37.1052 21.1332 34.8539 22.4534 34.8804 25.1339C34.9103 28.3409 37.7504 29.4573 37.91 29.52C37.9137 29.5215 37.9159 29.5224 37.9167 29.5227C37.9151 29.527 37.9122 29.5359 37.9079 29.5491C37.8365 29.7675 37.3795 31.166 36.3499 32.6081C35.4068 33.9289 34.4308 35.2457 32.8887 35.2726C32.1486 35.2857 31.6537 35.0805 31.1392 34.8672C30.6007 34.6438 30.0406 34.4116 29.1553 34.4116C28.2282 34.4116 27.6424 34.6509 27.0781 34.8814C26.5887 35.0812 26.1155 35.2745 25.45 35.2995C23.9624 35.3525 22.8304 33.8711 21.8799 32.5543C19.9369 29.8622 18.4526 24.9448 20.446 21.6243C21.4361 19.976 23.205 18.9322 25.1257 18.9061C25.9536 18.8913 26.7554 19.1961 27.4573 19.4629C27.9937 19.6668 28.4716 19.8485 28.8583 19.8485C29.2052 19.8485 29.6702 19.6726 30.2125 19.4674C31.0661 19.1444 32.1111 18.749 33.1882 18.853C33.925 18.8847 35.9951 19.1403 37.3243 21.0047C37.3217 21.0062 37.3178 21.0085 37.3127 21.0115Z" fill="#2A2D2E"/>
<path d="M46.4053 15.7522V34H48.7261V27.4874H53.4065C56.9007 27.4874 59.3892 25.0721 59.3892 21.6577C59.3892 18.1802 56.9523 15.7522 53.4323 15.7522H46.4053ZM48.7261 17.7755H52.8263C55.5211 17.7755 57.0039 19.1539 57.0039 21.6577C57.0039 24.0731 55.4695 25.4641 52.8263 25.4641H48.7261V17.7755Z" fill="#2A2D2E"/>
<path d="M65.3098 32.3307C63.6981 32.3307 62.499 31.5214 62.499 30.1304C62.499 28.7646 63.4273 28.0438 65.5419 27.9047L69.2811 27.6645V28.9164C69.2811 30.8638 67.592 32.3307 65.3098 32.3307ZM64.8972 34.2402C66.7539 34.2402 68.2754 33.4436 69.1779 31.9893H69.3842V34H71.4988V24.6674C71.4988 21.8348 69.6034 20.1276 66.2124 20.1276C63.2468 20.1276 61.0549 21.5692 60.7583 23.7569H63.0018C63.3113 22.6821 64.4717 22.0624 66.135 22.0624C68.2109 22.0624 69.2811 22.9855 69.2811 24.6674V25.9067L65.2711 26.147C62.0348 26.3367 60.2039 27.7403 60.2039 30.181C60.2039 32.6722 62.2024 34.2402 64.8972 34.2402Z" fill="#2A2D2E"/>
<path d="M74.9051 38.9318C77.3678 38.9318 78.4767 37.996 79.6629 34.8346L85.0911 20.3679H82.7316L78.9279 31.5846H78.7216L74.9051 20.3679H72.5069L77.6515 34.0126L77.3936 34.8219C76.8134 36.4659 76.1171 37.0602 74.8406 37.0602C74.5312 37.0602 74.1831 37.0476 73.9123 36.997V38.8559C74.2217 38.9065 74.6086 38.9318 74.9051 38.9318Z" fill="#2A2D2E"/>
<rect x="116" width="104" height="51" rx="2" fill="#FBFAF8"/>
<g clip-path="url(#clip0_487_408)">
<path d="M156.394 24.2077C156.395 23.5273 156.335 22.848 156.215 22.1775H146.403V26.0207H152.022C151.907 26.6341 151.663 27.2188 151.306 27.7396C150.949 28.2604 150.486 28.7064 149.945 29.0508V31.5519H153.299C155.262 29.8151 156.394 27.2457 156.394 24.2077Z" fill="#4285F4"/>
<path d="M146.403 33.9621C149.208 33.9621 151.575 33.077 153.298 31.5519L149.944 29.0556C149.01 29.6656 147.81 30.0103 146.403 30.0103C143.69 30.0103 141.386 28.2559 140.563 25.8914H137.108V28.4633C137.974 30.1163 139.302 31.506 140.943 32.477C142.584 33.4481 144.475 33.9622 146.403 33.9621V33.9621Z" fill="#34A853"/>
<path d="M140.563 25.8915C140.127 24.6524 140.127 23.3105 140.563 22.0714V19.4989H137.108C136.379 20.89 135.999 22.4255 135.999 23.9827C135.999 25.5398 136.379 27.0753 137.108 28.4664L140.563 25.8915Z" fill="#FBBC04"/>
<path d="M165.796 25.7267V32.7592H163.469V15.386H169.637C170.374 15.3708 171.106 15.4959 171.792 15.754C172.478 16.0121 173.103 16.3981 173.633 16.8897C174.159 17.36 174.579 17.9291 174.865 18.5617C175.152 19.1943 175.301 19.8768 175.301 20.5667C175.301 21.2566 175.152 21.9391 174.865 22.5718C174.579 23.2044 174.159 23.7735 173.633 24.2437C172.553 25.2312 171.221 25.7241 169.637 25.7224H165.795L165.796 25.7267ZM165.796 17.5272V23.5928H169.697C170.316 23.6037 170.924 23.4395 171.447 23.1208C171.969 22.802 172.382 22.3427 172.634 21.8003C172.886 21.2578 172.965 20.6562 172.863 20.0705C172.761 19.4849 172.481 18.941 172.059 18.5069C172.038 18.4862 172.019 18.4661 171.995 18.4459C171.702 18.1447 171.345 17.9068 170.948 17.748C170.551 17.5892 170.124 17.5131 169.694 17.5248L165.796 17.5272ZM180.664 20.4865C182.385 20.4865 183.741 20.9269 184.734 21.8078C185.727 22.6887 186.224 23.8972 186.226 25.4333V32.7592H184V31.1121H183.9C182.936 32.4713 181.655 33.1504 180.055 33.1496C178.69 33.1496 177.549 32.7614 176.63 31.9851C176.189 31.6286 175.836 31.1823 175.598 30.6787C175.36 30.1752 175.241 29.6269 175.252 29.074C175.252 27.8433 175.736 26.8652 176.706 26.1397C177.675 25.4142 178.969 25.0506 180.585 25.049C181.966 25.049 183.106 25.293 183.997 25.7755V25.2643C184 24.8874 183.915 24.5147 183.749 24.1731C183.583 23.8316 183.34 23.5298 183.037 23.2896C182.422 22.7572 181.62 22.467 180.791 22.477C179.493 22.477 178.464 23.0027 177.706 24.054L175.662 22.8132C176.786 21.2612 178.453 20.4857 180.663 20.4865H180.664ZM177.653 29.1215C177.652 29.4052 177.721 29.685 177.855 29.9379C177.989 30.1908 178.184 30.4095 178.424 30.5759C178.938 30.964 179.577 31.1697 180.231 31.1585C181.213 31.1558 182.153 30.7813 182.848 30.1165C183.618 29.4203 184.003 28.6034 184.003 27.666C183.277 27.1117 182.266 26.8341 180.968 26.8333C180.023 26.8333 179.235 27.0517 178.604 27.4885C177.968 27.9344 177.65 28.4737 177.65 29.1215H177.653ZM199 20.8763L191.233 38H188.832L191.714 32.0076L186.605 20.8763H189.133L192.821 29.4168H192.872L196.463 20.8763H199Z" fill="#5F6368"/>
<path d="M146.403 17.9524C147.886 17.9291 149.319 18.4664 150.393 19.4482L153.364 16.6006C151.481 14.9042 148.986 13.9725 146.403 14.0006C144.475 14.001 142.585 14.5153 140.943 15.4862C139.302 16.457 137.974 17.8463 137.108 19.4989L140.563 22.0714C141.386 19.7069 143.69 17.9524 146.403 17.9524Z" fill="#EA4335"/>
</g>
<rect x="234" width="103" height="51" rx="2" fill="#FBFAF8"/>
<path fill-rule="evenodd" clip-rule="evenodd" d="M279.386 39.6337L279.918 36.4139L278.733 36.3876H273.078L277.008 12.6271C277.021 12.5552 277.06 12.4884 277.118 12.4409C277.176 12.3934 277.25 12.3673 277.327 12.3673H286.863C290.029 12.3673 292.213 12.9953 293.354 14.235C293.889 14.8166 294.229 15.4245 294.394 16.0932C294.567 16.7951 294.57 17.6335 294.401 18.6562L294.389 18.7306V19.3861L294.924 19.6749C295.374 19.9027 295.732 20.1634 296.006 20.4618C296.464 20.9592 296.759 21.5912 296.884 22.3403C297.014 23.1109 296.971 24.028 296.759 25.0663C296.515 26.2604 296.121 27.3005 295.588 28.1514C295.099 28.9355 294.474 29.5861 293.733 30.09C293.026 30.5689 292.185 30.9325 291.234 31.1651C290.313 31.3938 289.263 31.5091 288.111 31.5091H287.369C286.839 31.5091 286.323 31.6913 285.919 32.018C285.513 32.3514 285.245 32.807 285.162 33.3052L285.106 33.5951L284.167 39.2705L284.124 39.4787C284.113 39.5447 284.094 39.5775 284.065 39.5998C284.04 39.6202 284.003 39.6337 283.968 39.6337H279.386" fill="#28356A"/>
<path fill-rule="evenodd" clip-rule="evenodd" d="M295.428 18.8064C295.4 18.9799 295.367 19.1572 295.331 19.3394C294.073 25.4955 289.771 27.6223 284.277 27.6223H281.479C280.807 27.6223 280.24 28.0873 280.136 28.7194L278.298 39.8363C278.23 40.2514 278.565 40.6253 279.004 40.6253H283.966C284.554 40.6253 285.053 40.2183 285.146 39.6658L285.194 39.4255L286.129 33.7724L286.189 33.4624C286.28 32.908 286.78 32.5007 287.368 32.5007H288.11C292.917 32.5007 296.681 30.6398 297.781 25.2542C298.24 23.0044 298.002 21.1259 296.786 19.8047C296.419 19.4064 295.962 19.0757 295.428 18.8064" fill="#019DDE"/>
<path fill-rule="evenodd" clip-rule="evenodd" d="M294.114 18.3061C293.922 18.2526 293.723 18.2043 293.52 18.1605C293.316 18.1179 293.106 18.0802 292.891 18.0471C292.136 17.9308 291.31 17.8757 290.425 17.8757H282.951C282.766 17.8757 282.592 17.9154 282.435 17.9871C282.09 18.1451 281.834 18.4562 281.772 18.8371L280.182 28.4393L280.137 28.7192C280.241 28.0871 280.808 27.622 281.48 27.622H284.277C289.772 27.622 294.074 25.4942 295.332 19.3392C295.369 19.157 295.401 18.9797 295.429 18.8062C295.111 18.6452 294.766 18.5075 294.395 18.3902C294.304 18.3612 294.209 18.3332 294.114 18.3061" fill="#00164C"/>
<path fill-rule="evenodd" clip-rule="evenodd" d="M281.772 18.8373C281.835 18.4564 282.091 18.1452 282.435 17.9883C282.593 17.9163 282.767 17.8767 282.951 17.8767H290.425C291.31 17.8767 292.137 17.9321 292.891 18.0483C293.106 18.0811 293.316 18.1192 293.52 18.1618C293.723 18.2052 293.922 18.2538 294.114 18.307C294.209 18.3342 294.304 18.3624 294.396 18.3904C294.767 18.5077 295.112 18.6464 295.43 18.8063C295.804 16.5314 295.427 14.9824 294.137 13.5798C292.715 12.0355 290.148 11.3746 286.864 11.3746H277.328C276.657 11.3746 276.085 11.8397 275.981 12.4729L272.009 36.4777C271.931 36.9526 272.315 37.381 272.817 37.381H278.704L281.772 18.8373" fill="#012F86"/>
<rect x="350" width="104" height="51" rx="2" fill="#FBFAF8"/>
<path fill-rule="evenodd" clip-rule="evenodd" d="M411.053 24.4992H408.093L404.579 15.1444V24.4992H401.216V11.858H406.621L409.62 19.9121L412.601 11.858H417.949V24.4992H414.588V15.1444L411.053 24.4992ZM403.004 27.5008V30.336H395.517V32.3951H402.833V35.157H395.517V37.3068H403.004V40.142H392.116V27.5008H403.004ZM418 40.142H413.74L410.569 36.2223L407.417 40.142H403.273L408.601 33.8386L403.254 27.5008H407.512L410.664 31.3834L413.816 27.5008H417.962L412.613 33.7671L418 40.142ZM397.035 24.4993H400.855L395.143 11.8581H390.731L385.001 24.4993H388.745L389.853 21.9172H395.927L397.035 24.4993ZM392.871 14.8377L391.018 19.1718H394.743L392.871 14.8377Z" fill="#006FAC"/>
<rect x="466" width="104" height="51" rx="2" fill="#FBFAF8"/>
<path fill-rule="evenodd" clip-rule="evenodd" d="M526.903 39.8C534.689 39.8 541 33.6215 541 26C541 18.3784 534.689 12.2 526.903 12.2C519.118 12.2 512.807 18.3784 512.807 26C512.807 33.6215 519.118 39.8 526.903 39.8Z" fill="#F79E1B"/>
<path fill-rule="evenodd" clip-rule="evenodd" d="M509.097 39.8C516.882 39.8 523.194 33.6215 523.194 26C523.194 18.3784 516.882 12.2 509.097 12.2C501.311 12.2 495 18.3784 495 26C495 33.6215 501.311 39.8 509.097 39.8Z" fill="#EB001B"/>
<path fill-rule="evenodd" clip-rule="evenodd" d="M518.001 36.6997C521.171 34.1692 523.195 30.316 523.195 26C523.195 21.6839 521.171 17.8307 518.001 15.3002C514.832 17.8307 512.808 21.6839 512.808 25.9999C512.808 30.3159 514.832 34.1692 518.001 36.6997Z" fill="#FF5F00"/>
<defs>
<clipPath id="clip0_487_408">
<rect width="63" height="24" fill="white" transform="translate(136 14)"/>
</clipPath>
</defs>
</svg>
