<svg width="104" height="51" viewBox="0 0 104 51" fill="none" xmlns="http://www.w3.org/2000/svg">
<rect width="104" height="51" rx="2" fill="#FBFAF8"/>
<g clip-path="url(#clip0_271_3699)">
<path d="M40.3942 24.2077C40.3952 23.5273 40.3352 22.848 40.2148 22.1775H30.4033V26.0207H36.0216C35.9066 26.6341 35.6633 27.2188 35.3064 27.7396C34.9494 28.2604 34.4862 28.7064 33.9447 29.0508V31.5519H37.2985C39.2622 29.8151 40.3942 27.2457 40.3942 24.2077Z" fill="#4285F4"/>
<path d="M30.4029 33.9621C33.2079 33.9621 35.5754 33.077 37.2981 31.5519L33.9443 29.0556C33.0102 29.6656 31.8096 30.0103 30.4029 30.0103C27.6901 30.0103 25.3862 28.2559 24.5627 25.8914H21.1084V28.4633C21.9739 30.1163 23.3015 31.506 24.9428 32.477C26.5842 33.4481 28.4746 33.9622 30.4029 33.9621Z" fill="#34A853"/>
<path d="M24.5625 25.8915C24.127 24.6524 24.127 23.3105 24.5625 22.0714V19.4989H21.1082C20.3789 20.89 19.999 22.4255 19.999 23.9827C19.999 25.5398 20.3789 27.0753 21.1082 28.4664L24.5625 25.8915Z" fill="#FBBC04"/>
<path d="M49.7962 25.7267V32.7592H47.4688V15.386H53.6371C54.3737 15.3708 55.106 15.4959 55.7918 15.754C56.4776 16.0121 57.1033 16.3981 57.6326 16.8897C58.1588 17.36 58.5785 17.9291 58.8655 18.5617C59.1524 19.1943 59.3005 19.8768 59.3005 20.5667C59.3005 21.2566 59.1524 21.9391 58.8655 22.5718C58.5785 23.2044 58.1588 23.7735 57.6326 24.2437C56.5532 25.2312 55.2214 25.7241 53.6371 25.7224H49.7949L49.7962 25.7267ZM49.7962 17.5272V23.5928H53.6969C54.3158 23.6037 54.9244 23.4395 55.4467 23.1208C55.9689 22.802 56.3818 22.3427 56.6337 21.8003C56.8856 21.2578 56.9654 20.6562 56.8631 20.0705C56.7609 19.4849 56.4811 18.941 56.0587 18.5069C56.0377 18.4862 56.0193 18.4661 55.9951 18.4459C55.7016 18.1447 55.3446 17.9068 54.948 17.748C54.5513 17.5892 54.124 17.5131 53.6943 17.5248L49.7962 17.5272ZM64.6645 20.4865C66.3849 20.4865 67.7415 20.9269 68.7343 21.8078C69.7272 22.6887 70.2243 23.8972 70.2256 25.4333V32.7592H67.9999V31.1121H67.9C66.9364 32.4713 65.6546 33.1504 64.0547 33.1496C62.6904 33.1496 61.5487 32.7614 60.6296 31.9851C60.1889 31.6286 59.8365 31.1823 59.5981 30.6787C59.3597 30.1752 59.2414 29.6269 59.2516 29.074C59.2516 27.8433 59.7364 26.8652 60.7059 26.1397C61.6755 25.4142 62.9685 25.0506 64.585 25.049C65.9656 25.049 67.1058 25.293 67.9973 25.7755V25.2643C68 24.8874 67.9153 24.5147 67.7492 24.1731C67.5831 23.8316 67.3399 23.5298 67.0371 23.2896C66.4217 22.7572 65.6197 22.467 64.791 22.477C63.4925 22.477 62.4642 23.0027 61.7062 24.054L59.6618 22.8132C60.7856 21.2612 62.4526 20.4857 64.6626 20.4865H64.6645ZM61.6534 29.1215C61.6523 29.4052 61.7215 29.685 61.8554 29.9379C61.9893 30.1908 62.1841 30.4095 62.4235 30.5759C62.9383 30.964 63.5769 31.1697 64.2314 31.1585C65.2126 31.1558 66.153 30.7813 66.8476 30.1165C67.6183 29.4203 68.0035 28.6034 68.003 27.666C67.2773 27.1117 66.2657 26.8341 64.9685 26.8333C64.0235 26.8333 63.2354 27.0517 62.6041 27.4885C61.9682 27.9344 61.6503 28.4737 61.6503 29.1215H61.6534ZM82.9998 20.8763L75.2334 38H72.8322L75.7135 32.0076L70.6046 20.8763H73.133L76.8213 29.4168H76.8715L80.4631 20.8763H82.9998Z" fill="#5F6368"/>
<path d="M30.4029 17.9524C31.886 17.9291 33.3191 18.4664 34.3926 19.4482L37.3643 16.6006C35.4808 14.9042 32.9863 13.9725 30.4029 14.0006C28.4748 14.001 26.5846 14.5153 24.9434 15.4862C23.3022 16.457 21.9745 17.8463 21.1084 19.4989L24.5627 22.0714C25.3862 19.7069 27.6901 17.9524 30.4029 17.9524Z" fill="#EA4335"/>
</g>
<defs>
<clipPath id="clip0_271_3699">
<rect width="63" height="24" fill="white" transform="translate(20 14)"/>
</clipPath>
</defs>
</svg>
