<svg width="104" height="51" viewBox="0 0 104 51" fill="none" xmlns="http://www.w3.org/2000/svg">
<rect width="104" height="51" rx="2" fill="#FBFAF8"/>
<path fill-rule="evenodd" clip-rule="evenodd" d="M33.2122 13.6085C33.3574 14.8794 32.8261 16.1551 32.0357 17.0722C31.2453 17.9894 29.9491 18.7024 28.681 18.6074C28.5077 17.3626 29.1479 16.0648 29.8798 15.2521C30.6966 14.3358 32.0744 13.6536 33.2122 13.6085ZM37.3127 21.0116C37.1052 21.1333 34.8539 22.4535 34.8804 25.134C34.9103 28.341 37.7504 29.4574 37.91 29.5201C37.9137 29.5216 37.9159 29.5225 37.9167 29.5228C37.9151 29.5272 37.9122 29.536 37.9079 29.5492C37.8365 29.7676 37.3795 31.1661 36.3499 32.6083C35.4068 33.929 34.4308 35.2458 32.8887 35.2727C32.1486 35.2858 31.6537 35.0806 31.1392 34.8673C30.6007 34.644 30.0406 34.4117 29.1553 34.4117C28.2282 34.4117 27.6424 34.651 27.0781 34.8815C26.5887 35.0813 26.1155 35.2746 25.45 35.2996C23.9624 35.3526 22.8304 33.8712 21.8799 32.5544C19.9369 29.8623 18.4526 24.9449 20.446 21.6244C21.4361 19.9761 23.205 18.9323 25.1257 18.9062C25.9536 18.8914 26.7554 19.1962 27.4573 19.4631C27.9937 19.667 28.4716 19.8487 28.8583 19.8487C29.2052 19.8487 29.6702 19.6727 30.2125 19.4675C31.0661 19.1445 32.1111 18.7491 33.1882 18.8532C33.925 18.8848 35.9951 19.1404 37.3243 21.0048C37.3217 21.0064 37.3178 21.0086 37.3127 21.0116Z" fill="#2A2D2E"/>
<path d="M46.4053 15.7523V34.0001H48.7261V27.4875H53.4065C56.9007 27.4875 59.3892 25.0722 59.3892 21.6579C59.3892 18.1803 56.9523 15.7523 53.4323 15.7523H46.4053ZM48.7261 17.7756H52.8263C55.5211 17.7756 57.0039 19.154 57.0039 21.6579C57.0039 24.0732 55.4695 25.4642 52.8263 25.4642H48.7261V17.7756Z" fill="#2A2D2E"/>
<path d="M65.3098 32.3309C63.6981 32.3309 62.499 31.5215 62.499 30.1305C62.499 28.7648 63.4273 28.044 65.5419 27.9049L69.2811 27.6646V28.9165C69.2811 30.864 67.592 32.3309 65.3098 32.3309ZM64.8972 34.2404C66.7539 34.2404 68.2754 33.4437 69.1779 31.9894H69.3842V34.0001H71.4988V24.6676C71.4988 21.8349 69.6034 20.1277 66.2124 20.1277C63.2468 20.1277 61.0549 21.5694 60.7583 23.7571H63.0018C63.3113 22.6822 64.4717 22.0625 66.135 22.0625C68.2109 22.0625 69.2811 22.9857 69.2811 24.6676V25.9068L65.2711 26.1471C62.0348 26.3368 60.2039 27.7405 60.2039 30.1811C60.2039 32.6723 62.2024 34.2404 64.8972 34.2404Z" fill="#2A2D2E"/>
<path d="M74.9051 38.9319C77.3678 38.9319 78.4767 37.9961 79.6629 34.8347L85.0911 20.368H82.7316L78.9279 31.5848H78.7216L74.9051 20.368H72.5069L77.6515 34.0127L77.3936 34.8221C76.8134 36.466 76.1171 37.0604 74.8406 37.0604C74.5312 37.0604 74.1831 37.0477 73.9123 36.9971V38.8561C74.2218 38.9066 74.6086 38.9319 74.9051 38.9319Z" fill="#2A2D2E"/>
</svg>
