<svg width="103" height="51" viewBox="0 0 103 51" fill="none" xmlns="http://www.w3.org/2000/svg">
<rect width="103" height="51" rx="2" fill="#FBFAF8"/>
<path fill-rule="evenodd" clip-rule="evenodd" d="M45.3859 39.6337L45.9176 36.4139L44.7333 36.3876H39.0781L43.0083 12.6271C43.0205 12.5552 43.0601 12.4884 43.1179 12.4409C43.176 12.3934 43.25 12.3673 43.3275 12.3673H52.8629C56.0288 12.3673 58.2134 12.9953 59.3539 14.235C59.8886 14.8166 60.2292 15.4245 60.394 16.0932C60.5669 16.7951 60.5697 17.6335 60.4012 18.6562L60.3889 18.7306V19.3861L60.9237 19.6749C61.3739 19.9027 61.7318 20.1634 62.0063 20.4618C62.4636 20.9592 62.7595 21.5912 62.8845 22.3403C63.0138 23.1109 62.971 24.028 62.7595 25.0663C62.5154 26.2604 62.1211 27.3005 61.5883 28.1514C61.0985 28.9355 60.4743 29.5861 59.7331 30.09C59.0255 30.5689 58.1849 30.9325 57.2344 31.1651C56.3133 31.3938 55.2631 31.5091 54.1113 31.5091H53.3692C52.8387 31.5091 52.3233 31.6913 51.9187 32.018C51.5129 32.3514 51.2447 32.807 51.1624 33.3052L51.1063 33.5951L50.1669 39.2705L50.1245 39.4787C50.1131 39.5447 50.0937 39.5775 50.0653 39.5998C50.0399 39.6202 50.0035 39.6337 49.9679 39.6337H45.3859Z" fill="#28356A"/>
<path fill-rule="evenodd" clip-rule="evenodd" d="M61.4282 18.8064C61.4 18.9799 61.3673 19.1572 61.3308 19.3394C60.0734 25.4955 55.7711 27.6223 50.2765 27.6223H47.4788C46.8068 27.6223 46.2404 28.0873 46.1359 28.7194L44.2979 39.8363C44.2298 40.2514 44.5652 40.6253 45.0043 40.6253H49.9664C50.5538 40.6253 51.053 40.2183 51.1456 39.6658L51.1943 39.4255L52.1285 33.7724L52.1886 33.4624C52.28 32.908 52.7803 32.5007 53.3678 32.5007H54.1098C58.9173 32.5007 62.6808 30.6398 63.7808 25.2542C64.2401 23.0044 64.0024 21.1259 62.7865 19.8047C62.4186 19.4064 61.9621 19.0757 61.4282 18.8064Z" fill="#019DDE"/>
<path fill-rule="evenodd" clip-rule="evenodd" d="M60.1137 18.3061C59.9215 18.2526 59.7233 18.2043 59.52 18.1605C59.3156 18.1179 59.1063 18.0802 58.8907 18.0471C58.1364 17.9308 57.3098 17.8757 56.4245 17.8757H48.9506C48.7664 17.8757 48.5916 17.9154 48.4352 17.9871C48.0904 18.1451 47.8344 18.4562 47.7723 18.8371L46.1823 28.4393L46.1367 28.7192C46.2412 28.0871 46.8076 27.622 47.4796 27.622H50.2773C55.7719 27.622 60.0742 25.4942 61.3316 19.3392C61.3692 19.157 61.4008 18.9797 61.429 18.8062C61.1109 18.6452 60.7664 18.5075 60.3954 18.3902C60.3037 18.3612 60.2091 18.3332 60.1137 18.3061Z" fill="#00164C"/>
<path fill-rule="evenodd" clip-rule="evenodd" d="M47.7725 18.8373C47.8345 18.4564 48.0905 18.1452 48.4354 17.9883C48.5928 17.9163 48.7665 17.8767 48.9508 17.8767H56.4246C57.3099 17.8767 58.1366 17.9321 58.8909 18.0483C59.1064 18.0811 59.3157 18.1192 59.5202 18.1618C59.7235 18.2052 59.9217 18.2538 60.1139 18.307C60.2093 18.3342 60.3038 18.3624 60.3963 18.3904C60.7674 18.5077 61.1122 18.6464 61.4303 18.8063C61.8044 16.5314 61.4271 14.9824 60.1372 13.5798C58.7149 12.0355 56.1481 11.3746 52.8635 11.3746H43.3278C42.6569 11.3746 42.0846 11.8397 41.9809 12.4729L38.0092 36.4777C37.9309 36.9526 38.315 37.381 38.8173 37.381H44.7043L47.7725 18.8373Z" fill="#012F86"/>
</svg>
