<svg width="104" height="51" viewBox="0 0 104 51" fill="none" xmlns="http://www.w3.org/2000/svg">
<rect width="104" height="51" rx="2" fill="#FBFAF8"/>
<path fill-rule="evenodd" clip-rule="evenodd" d="M61.0528 24.4992H58.0931L54.5791 15.1444V24.4992H51.2159V11.858H56.6214L59.6204 19.9121L62.6006 11.858H67.9493V24.4992H64.5877V15.1444L61.0528 24.4992ZM53.0044 27.5008V30.336H45.5172V32.3951H52.8327V35.157H45.5172V37.3068H53.0044V40.142H42.1163V27.5008H53.0044ZM67.9997 40.142H63.74L60.5693 36.2223L57.4175 40.142H53.2727L58.6011 33.8386L53.2538 27.5008H57.512L60.6638 31.3834L63.8156 27.5008H67.9619L62.6131 33.7671L67.9997 40.142ZM47.0349 24.4993H50.8549L45.1435 11.8581H40.7309L35.001 24.4993H38.7453L39.8533 21.9172H45.927L47.0349 24.4993ZM42.871 14.8377L41.0178 19.1718H44.7432L42.871 14.8377Z" fill="#006FAC"/>
</svg>
