<svg width="21" height="22" viewBox="0 0 21 22" fill="none" xmlns="http://www.w3.org/2000/svg">
<path d="M12.6213 19.741C12.4481 19.7845 12.2716 19.8231 12.0963 19.8556C11.6382 19.9414 11.3354 20.3852 11.4201 20.847C11.4619 21.0742 11.5901 21.2635 11.764 21.387C11.9432 21.5141 12.1714 21.5715 12.4039 21.5279C12.6126 21.4889 12.8229 21.443 13.0293 21.3912C13.4816 21.2778 13.7572 20.8161 13.6444 20.3607C13.5318 19.9049 13.0739 19.6275 12.6213 19.741Z" fill="#001780"/>
<path d="M18.8641 8.34276C18.9233 8.52229 19.0362 8.66884 19.1788 8.77011C19.3902 8.92012 19.6669 8.97059 19.9309 8.88265C20.3736 8.73459 20.6134 8.25378 20.467 7.80811C20.4003 7.60494 20.3262 7.40114 20.2474 7.2027C20.0742 6.76662 19.5832 6.55432 19.15 6.72875C18.7173 6.90308 18.5065 7.39786 18.6798 7.83407C18.7461 8.00086 18.8081 8.17206 18.8641 8.34276Z" fill="#001780"/>
<path d="M15.3645 18.527C15.2155 18.6261 15.0618 18.7219 14.907 18.8117C14.503 19.0464 14.3647 19.5666 14.5976 19.9733C14.6608 20.084 14.7451 20.1744 14.8421 20.2435C15.1025 20.4281 15.4562 20.4558 15.7507 20.2849C15.9347 20.1779 16.1178 20.0642 16.2951 19.946C16.684 19.6872 16.791 19.1596 16.534 18.7678C16.277 18.3757 15.7534 18.2681 15.3645 18.527Z" fill="#001780"/>
<path d="M20.9919 10.718C20.9736 10.2487 20.5811 9.88334 20.115 9.90166C19.6495 9.92017 19.2866 10.3156 19.3049 10.7848C19.3119 10.9642 19.3137 11.1463 19.3096 11.3255C19.303 11.6198 19.4459 11.8822 19.668 12.0399C19.8003 12.1337 19.9609 12.1905 20.135 12.1945C20.601 12.2049 20.9871 11.8327 20.9974 11.3631C21.0021 11.1489 21.0003 10.932 20.9919 10.718Z" fill="#001780"/>
<path d="M18.7264 16.2897C18.3528 16.0073 17.8241 16.084 17.5443 16.4596C17.4371 16.6035 17.3243 16.7456 17.2087 16.8824C16.9067 17.2399 16.9494 17.7767 17.3042 18.0811C17.3244 18.0984 17.3449 18.1143 17.3661 18.1292C17.7188 18.3797 18.2091 18.3222 18.4943 17.985C18.6323 17.8218 18.7668 17.652 18.8949 17.4802C19.1747 17.1045 19.099 16.5716 18.7264 16.2897Z" fill="#001780"/>
<path d="M19.9674 13.2158C19.5225 13.0753 19.0487 13.3248 18.9093 13.7729C18.856 13.9441 18.7968 14.1161 18.733 14.2846C18.5928 14.6554 18.7271 15.0635 19.035 15.2822C19.0915 15.3221 19.1537 15.356 19.2212 15.3818C19.6568 15.5492 20.1446 15.3291 20.3106 14.8901C20.3864 14.6898 20.4567 14.4851 20.5203 14.2816C20.6596 13.8334 20.4121 13.3563 19.9674 13.2158Z" fill="#001780"/>
<path d="M8.93804 19.8633C8.18326 19.7268 7.45923 19.4943 6.77267 19.1701C6.76454 19.1658 6.75728 19.161 6.74875 19.1571C6.58696 19.0804 6.42544 18.9982 6.26889 18.9123C6.26834 18.9117 6.26735 18.9113 6.26649 18.9109C5.97926 18.7516 5.69892 18.5753 5.42658 18.3822C1.45536 15.5643 0.500516 10.0173 3.29814 6.01709C3.90647 5.14758 4.64265 4.42217 5.46337 3.84723C5.47349 3.84013 5.4836 3.83308 5.49362 3.82595C8.38573 1.81864 12.3128 1.68336 15.3837 3.74605L14.7241 4.70601C14.5408 4.9732 14.6536 5.16791 14.9746 5.13881L17.8396 4.88043C18.161 4.85133 18.3532 4.57127 18.2668 4.25861L17.4974 1.46637C17.4113 1.15334 17.1908 1.11587 17.0072 1.38302L16.3461 2.34525C14.0925 0.821354 11.3894 0.24027 8.7065 0.708902C8.43629 0.756011 8.16986 0.813669 7.90709 0.880785C7.90506 0.881149 7.90343 0.881376 7.90181 0.88174C7.89165 0.884241 7.88136 0.88756 7.87147 0.890334C5.55795 1.48879 3.53943 2.84798 2.09908 4.78726C2.08694 4.80177 2.07443 4.81596 2.06297 4.83174C2.01507 4.89671 1.96754 4.96319 1.921 5.02967C1.84489 5.13862 1.76986 5.2503 1.69809 5.36198C1.6891 5.37544 1.68224 5.38913 1.67439 5.40272C0.4858 7.25802 -0.0875022 9.40292 0.0108169 11.5866C0.0110427 11.5937 0.0106364 11.601 0.0108169 11.6083C0.0203419 11.8217 0.0371347 12.0379 0.0599313 12.2508C0.0611502 12.2645 0.0641747 12.2776 0.0664769 12.2913C0.090041 12.5054 0.119609 12.7199 0.15667 12.9345C0.533335 15.1234 1.55842 17.0931 3.09446 18.6257C3.09803 18.6293 3.10173 18.6332 3.10534 18.637C3.1066 18.6384 3.108 18.6391 3.10922 18.6404C3.52191 19.0504 3.9708 19.4297 4.45414 19.7726C5.71901 20.6704 7.12749 21.2638 8.6401 21.5372C9.09906 21.6203 9.53748 21.3126 9.61982 20.8505C9.70211 20.3881 9.39686 19.9461 8.93804 19.8633Z" fill="#001780"/>
<path d="M9.9819 4.2572C9.60438 4.2572 9.29858 4.5655 9.29858 4.94523V11.8L15.5223 15.0408C15.6225 15.093 15.7297 15.1176 15.8353 15.1176C16.0825 15.1176 16.3212 14.982 16.4426 14.7454C16.6157 14.4078 16.4847 13.9929 16.1495 13.8185L10.6644 10.9621V4.94523C10.6644 4.5655 10.359 4.2572 9.9819 4.2572Z" fill="#001780"/>
</svg>
