<svg width="163" height="24" viewBox="0 0 163 24" fill="none" xmlns="http://www.w3.org/2000/svg">
<rect x="115" width="48" height="24" rx="2" fill="#006FAC"/>
<path fill-rule="evenodd" clip-rule="evenodd" d="M134.658 11.0449H137.089L133.455 3H130.647L127 11.0449H129.383L130.088 9.40164H133.953L134.658 11.0449ZM143.58 11.0449H141.696L139.46 5.09142V11.0449H137.319V3H140.759L142.668 8.12559L144.565 3H147.969V11.0449H145.829V5.09142L143.58 11.0449ZM138.458 12.9551V14.7594H133.693V16.0698H138.348V17.8275H133.693V19.1957H138.458V21H131.528V12.9551H138.458ZM148.001 21H145.29L143.272 18.5054L141.266 21H138.628L142.019 16.9885L138.616 12.9551H141.326L143.332 15.426L145.338 12.9551H147.976L144.573 16.9429L148.001 21ZM132.009 4.89624L130.829 7.65446H133.2L132.009 4.89624Z" fill="#FBFAF8"/>
<rect x="58" width="47" height="24" rx="2" fill="#F79E1B"/>
<path fill-rule="evenodd" clip-rule="evenodd" d="M87.1856 21C92.1573 21 96.1876 16.9706 96.1876 12C96.1876 7.02944 92.1573 3 87.1856 3C82.2139 3 78.1836 7.02944 78.1836 12C78.1836 16.9706 82.2139 21 87.1856 21Z" fill="white"/>
<path fill-rule="evenodd" clip-rule="evenodd" d="M75.8145 21C80.7862 21 84.8165 16.9706 84.8165 12C84.8165 7.02944 80.7862 3 75.8145 3C70.8428 3 66.8125 7.02944 66.8125 12C66.8125 16.9706 70.8428 21 75.8145 21Z" fill="#EB001B"/>
<path fill-rule="evenodd" clip-rule="evenodd" d="M81.5001 5.02197C79.4761 6.67231 78.1836 9.18529 78.1836 12.0001C78.1836 14.8149 79.4761 17.3279 81.5001 18.9782C83.5241 17.3279 84.8165 14.8149 84.8165 12.0001C84.8165 9.18529 83.5241 6.67231 81.5001 5.02197Z" fill="#FF5F00"/>
<rect width="48" height="24" rx="2" fill="#1A1F71"/>
<path fill-rule="evenodd" clip-rule="evenodd" d="M32.1663 7.44798C31.5891 7.23205 30.6845 7 29.5543 7C26.6746 7 24.6453 8.44574 24.6283 10.5164C24.6125 12.0486 26.0765 12.9017 27.1824 13.4125C28.3164 13.9339 28.6983 14.2673 28.6923 14.7335C28.6851 15.4479 27.7869 15.7741 26.9491 15.7741C25.7823 15.7741 25.1629 15.6133 24.2056 15.2154L23.8297 15.0457L23.4206 17.4315C24.1021 17.7285 25.36 17.9868 26.6673 18C29.7314 18 31.7206 16.5712 31.7428 14.3594C31.7534 13.1469 30.9774 12.2243 29.2963 11.4645C28.2768 10.9711 27.6532 10.6415 27.66 10.1426C27.66 9.70058 28.1874 9.22588 29.3283 9.22588C30.2827 9.21103 30.9723 9.41847 31.5099 9.63482L31.7717 9.757L32.1663 7.44798ZM18.6824 17.8418L20.5048 7.18583H23.419L21.5958 17.8418H18.6824ZM37.3883 7.19629H39.6406L41.9993 17.8446H39.2945C39.2945 17.8446 39.0276 16.6212 38.9403 16.2483C38.7149 16.2483 37.7734 16.2471 36.8886 16.246L36.8763 16.2459C36.0966 16.245 35.3637 16.244 35.2075 16.244C35.0943 16.5321 34.5941 17.8446 34.5941 17.8446H31.533L35.8614 8.07994C36.1687 7.38549 36.6902 7.19629 37.3883 7.19629ZM36.0467 14.0644C36.288 13.4505 37.2084 11.0851 37.2084 11.0851C37.1998 11.099 37.2565 10.9523 37.3339 10.752L37.334 10.7518C37.4151 10.5417 37.5191 10.2728 37.5945 10.0682L37.7911 10.9871C37.7911 10.9871 38.3496 13.5303 38.4667 14.0644H36.0467ZM13.3847 14.46L16.2376 7.19358H19.3247L14.7366 17.8288L11.6525 17.833L9.04395 8.51291C10.894 9.43601 12.5495 11.2805 13.0803 12.9833L13.3847 14.46Z" fill="#F0F0F0"/>
<path fill-rule="evenodd" clip-rule="evenodd" d="M10.7374 7.18658H6.03703L6 7.40803C9.65663 8.29083 12.0762 10.4221 13.0804 12.9835L12.0583 8.08593C11.8821 7.411 11.37 7.20992 10.7374 7.18658Z" fill="#F9A51A"/>
</svg>
