<svg width="16" height="20" viewBox="0 0 16 20" fill="none" xmlns="http://www.w3.org/2000/svg">
<g clip-path="url(#clip0_271_3852)">
<path d="M7.1942 0H9.00535C9.07952 0.100741 9.18113 0.0740741 9.28199 0.100741C10.4679 0.284134 11.5582 0.858859 12.379 1.73326C13.1998 2.60766 13.7038 3.73137 13.8106 4.92519C13.8982 6.13742 13.9229 7.35336 13.8848 8.56815C13.8848 8.89482 13.959 9.02074 14.3127 9.07037C14.5556 9.08557 14.7929 9.14958 15.0104 9.25857C15.228 9.36756 15.4212 9.51928 15.5786 9.70465C15.736 9.89001 15.8544 10.1052 15.9265 10.3373C15.9987 10.5695 16.0232 10.8137 15.9985 11.0556V18.0407C16.0045 18.2996 15.9579 18.557 15.8615 18.7974C15.765 19.0377 15.6208 19.2561 15.4375 19.4392C15.2543 19.6223 15.0357 19.7664 14.7951 19.8628C14.5545 19.9592 14.2968 20.0059 14.0376 20H2.08781C1.53106 19.9957 0.998704 19.7712 0.607376 19.3756C0.216047 18.98 -0.00235264 18.4457 1.91173e-05 17.8896V11.2593C1.91173e-05 9.92593 0.427961 9.37481 1.76074 9.09852C1.81335 9.09737 1.86509 9.08489 1.91243 9.06194C1.95977 9.03899 2.0016 9.0061 2.03504 8.96552C2.06849 8.92494 2.09277 8.87763 2.10623 8.82682C2.11969 8.77601 2.12201 8.7229 2.11303 8.67111C2.08781 7.61556 2.0626 6.58593 2.11303 5.53037C2.11557 4.44691 2.44278 3.38901 3.05253 2.49289C3.66228 1.59677 4.52665 0.903454 5.53434 0.502222C6.07545 0.297031 6.63005 0.129228 7.1942 0V0ZM7.99891 9.02H10.7913C11.0175 9.02 11.194 9.02 11.1688 8.71852C11.2232 7.52014 11.1895 6.31938 11.0679 5.12593C11.0238 4.558 10.8146 4.01529 10.466 3.56446C10.1174 3.11363 9.64451 2.7743 9.10548 2.58815C8.6506 2.4171 8.16229 2.35341 7.67869 2.40204C7.19509 2.45067 6.7293 2.61031 6.3177 2.8685C5.9061 3.12668 5.55984 3.47641 5.30597 3.89037C5.0521 4.30433 4.8975 4.7713 4.85424 5.25482C4.76666 6.40001 4.7419 7.54914 4.78007 8.69704C4.78007 8.99852 4.9284 9.04889 5.18279 9.04889C6.13806 9.02 7.06886 9.02 7.99965 9.02H7.99891ZM7.92474 17.1859H9.10696C9.33317 17.1859 9.43403 17.1356 9.35838 16.8593C9.21005 16.1807 9.08174 15.5022 8.93044 14.8244C8.88208 14.6814 8.87529 14.5277 8.91086 14.381C8.94643 14.2343 9.02291 14.1006 9.13143 13.9956C9.3999 13.6951 9.54201 13.3028 9.52819 12.9003C9.51438 12.4979 9.3457 12.1162 9.05727 11.8348C8.80184 11.5671 8.45333 11.4074 8.08354 11.3887C7.71375 11.3699 7.35085 11.4936 7.0696 11.7341C6.90934 11.8549 6.77483 12.0064 6.67394 12.1798C6.57305 12.3532 6.50782 12.5449 6.48206 12.7438C6.45629 12.9427 6.47052 13.1447 6.5239 13.338C6.57729 13.5313 6.66876 13.7121 6.79296 13.8696C6.9421 14.028 7.04266 14.2258 7.08275 14.4395C7.12284 14.6533 7.10078 14.874 7.01916 15.0756C6.9507 15.3132 6.90842 15.5576 6.89308 15.8044C6.79221 16.257 6.49036 16.8348 6.66687 17.0859C6.9183 17.4119 7.54723 17.1356 7.92474 17.1852V17.1859Z" fill="white"/>
</g>
<defs>
<clipPath id="clip0_271_3852">
<rect width="16" height="20" fill="white"/>
</clipPath>
</defs>
</svg>
