<?xml version="1.0" encoding="utf-8"?>
<!-- Generator: Adobe Illustrator 25.4.1, SVG Export Plug-In . SVG Version: 6.00 Build 0)  -->
<svg version="1.1" id="Layer_1" xmlns="http://www.w3.org/2000/svg" xmlns:xlink="http://www.w3.org/1999/xlink" x="0px" y="0px"
	 viewBox="0 0 115 42" style="enable-background:new 0 0 115 42;" xml:space="preserve">
<style type="text/css">
	.st0{enable-background:new    ;}
</style>
<g id="_x30_16-padlock" transform="translate(12.000000, 7.000000)">
	<path id="Shape" d="M14.9,10.8V7.1c0-1.6-0.6-3.2-1.8-4.4C12,1.6,10.6,1,9.1,1C9,1,9,1,9,1C5.8,1,3.1,3.8,3.1,7.1v3.6
		C1.9,10.9,1,12,1,13.3v8.2C1,22.9,2.1,24,3.4,24h11.2c1.3,0,2.4-1.1,2.4-2.5v-8.2C17,12,16.1,10.9,14.9,10.8z M4.1,7.1L4.1,7.1
		C4.1,4.3,6.3,2,9,2h0c1.3,0,2.5,0.5,3.5,1.5c1,1,1.5,2.3,1.5,3.7v3.6h-1V7.1c0-1.1-0.4-2.2-1.2-2.9C11,3.4,10,3,9,3h0
		C6.8,3,5.1,4.9,5.1,7.1v3.7h-1V7.1L4.1,7.1z M12,7.1v3.6H6V7.1C6,5.4,7.4,4,9,4h0c0.8,0,1.5,0.3,2,0.9C11.6,5.5,12,6.3,12,7.1z
		 M16.1,21.5L16.1,21.5c0,0.9-0.7,1.5-1.5,1.5H3.4c-0.8,0-1.5-0.7-1.5-1.5v-8.2c0-0.9,0.7-1.5,1.5-1.5h11.2c0.8,0,1.5,0.7,1.5,1.5
		V21.5z"/>
	<path id="Shape_00000183239651753437188910000016317051539864339876_" d="M10.6,17.1c-0.2-0.8-0.9-1.3-1.6-1.3
		c-0.9,0-1.7,0.8-1.7,1.8c0,0.8,0.5,1.5,1.2,1.7v1.4c0,0.3,0.2,0.5,0.5,0.5c0.3,0,0.5-0.2,0.5-0.5v-1.4C10.4,19,10.9,18,10.6,17.1z
		 M9,18.4c-0.4,0-0.8-0.4-0.8-0.8s0.3-0.8,0.8-0.8c0.4,0,0.8,0.4,0.8,0.8S9.4,18.4,9,18.4z"/>
</g>
<g id="Oval">
	<path d="M21,41.4C9.8,41.4,0.6,32.2,0.6,21C0.6,9.8,9.8,0.6,21,0.6S41.4,9.8,41.4,21C41.4,32.2,32.2,41.4,21,41.4z M21,1.4
		C10.2,1.4,1.4,10.2,1.4,21S10.2,40.6,21,40.6S40.6,31.8,40.6,21S31.8,1.4,21,1.4z"/>
</g>
<g class="st0">
	<path d="M51.8,21.1c-1.8,0-3.2-0.9-3.3-2.6h2.2c0.1,0.6,0.5,1,1,1c0.6,0,1-0.3,1-0.8c0-1.6-4.2-0.7-4.2-3.7c0-1.6,1.3-2.5,3.1-2.5
		c1.8,0,3.1,0.9,3.2,2.5h-2.2c0-0.5-0.4-0.9-1-0.9c-0.5,0-0.9,0.2-0.9,0.8c0,1.5,4.2,0.8,4.2,3.6C54.9,19.9,53.8,21.1,51.8,21.1z"/>
	<path d="M61.3,14.2h-3.1v1.7h2.7v1.6h-2.7v1.8h3.1V21h-5.2v-8.4h5.2V14.2z"/>
	<path d="M66.5,12.5c2,0,3.5,1.1,4,3h-2.3c-0.3-0.7-1-1.1-1.8-1.1c-1.3,0-2.1,0.9-2.1,2.4s0.9,2.4,2.1,2.4c0.8,0,1.4-0.4,1.8-1.1
		h2.3c-0.5,1.8-2,2.9-4,2.9c-2.5,0-4.2-1.8-4.2-4.3S64,12.5,66.5,12.5z"/>
	<path d="M71.7,12.6h2.1v5c0,1,0.5,1.6,1.5,1.6s1.5-0.6,1.5-1.6v-5h2.1v5c0,2.3-1.6,3.5-3.6,3.5c-2,0-3.5-1.2-3.5-3.5V12.6z"/>
	<path d="M83.7,12.6c2.1,0,3.1,1.2,3.1,2.7c0,1.1-0.6,2.1-1.9,2.4l1.9,3.3h-2.3l-1.8-3.2h-0.5V21h-2.1v-8.4H83.7z M83.5,14.3h-1.3
		v2.1h1.3c0.8,0,1.1-0.4,1.1-1.1C84.7,14.7,84.3,14.3,83.5,14.3z"/>
	<path d="M93.2,14.2h-3.1v1.7h2.7v1.6h-2.7v1.8h3.1V21H88v-8.4h5.2V14.2z"/>
</g>
<g>
</g>
<g class="st0">
	<path d="M52.6,24.5c2,0,3.5,1.1,4,3h-2.3c-0.3-0.7-1-1.1-1.8-1.1c-1.3,0-2.1,0.9-2.1,2.4s0.9,2.4,2.1,2.4c0.8,0,1.4-0.4,1.8-1.1
		h2.3c-0.5,1.8-2,2.9-4,2.9c-2.5,0-4.2-1.8-4.2-4.3S50.1,24.5,52.6,24.5z"/>
	<path d="M63.1,29.5h-3.2V33h-2.1v-8.4h2.1v3.3h3.2v-3.3h2.1V33h-2.1V29.5z"/>
	<path d="M71.8,26.2h-3.1v1.7h2.7v1.6h-2.7v1.8h3.1V33h-5.2v-8.4h5.2V26.2z"/>
	<path d="M77,24.5c2,0,3.5,1.1,4,3h-2.3c-0.3-0.7-1-1.1-1.8-1.1c-1.3,0-2.1,0.9-2.1,2.4s0.9,2.4,2.1,2.4c0.8,0,1.4-0.4,1.8-1.1H81
		c-0.5,1.8-2,2.9-4,2.9c-2.5,0-4.2-1.8-4.2-4.3S74.6,24.5,77,24.5z"/>
	<path d="M84.3,29.3V33h-2.1v-8.4h2.1v3.7l2.8-3.7h2.4l-3.3,4.1l3.4,4.3h-2.5L84.3,29.3z"/>
	<path d="M94.6,33.1c-2.4,0-4.3-1.8-4.3-4.3c0-2.5,1.9-4.3,4.3-4.3c2.4,0,4.3,1.8,4.3,4.3C98.9,31.3,97,33.1,94.6,33.1z M94.6,31.2
		c1.3,0,2.2-1,2.2-2.4c0-1.5-0.9-2.4-2.2-2.4c-1.4,0-2.2,0.9-2.2,2.4C92.4,30.2,93.3,31.2,94.6,31.2z"/>
	<path d="M100.1,24.6h2.1v5c0,1,0.5,1.6,1.5,1.6c1,0,1.5-0.6,1.5-1.6v-5h2.1v5c0,2.3-1.6,3.5-3.6,3.5c-2,0-3.5-1.2-3.5-3.5V24.6z"/>
	<path d="M108.1,24.6h6.5v1.6h-2.2V33h-2.1v-6.8h-2.2V24.6z"/>
</g>
</svg>
