<?xml version="1.0" encoding="utf-8"?>
<!-- Generator: Adobe Illustrator 24.3.0, SVG Export Plug-In . SVG Version: 6.00 Build 0)  -->
<svg version="1.1" id="Layer_1" xmlns="http://www.w3.org/2000/svg" xmlns:xlink="http://www.w3.org/1999/xlink" x="0px" y="0px"
	 width="50px" height="30.64px" viewBox="0 0 50 30.64" style="enable-background:new 0 0 50 30.64;" xml:space="preserve">
<style type="text/css">
	.st0{fill:#005EB8;}
</style>
<g>
	<path class="st0" d="M40.73,27.36H9.41c-0.59,0-1.07,0.46-1.07,1.04c0,0.57,0.48,1.04,1.07,1.04h31.32c0.59,0,1.07-0.46,1.07-1.04
		C41.8,27.82,41.32,27.36,40.73,27.36z"/>
	<path class="st0" d="M32.22,14.72L32.22,14.72c-0.36-0.45-1.01-0.52-1.46-0.16l-4.66,3.74V2.2c0-0.57-0.46-1.04-1.04-1.04h0
		c-0.57,0-1.04,0.46-1.04,1.04V18.3l-4.66-3.74c-0.45-0.36-1.1-0.29-1.46,0.16l0,0c-0.36,0.45-0.28,1.1,0.16,1.45l6.06,4.87
		c0.54,0.44,1.32,0.44,1.86,0l6.06-4.87C32.51,15.82,32.58,15.17,32.22,14.72z"/>
</g>
</svg>
